<svg width="18" height="18" viewBox="0 0 18 18" fill="none" xmlns="http://www.w3.org/2000/svg">
<path d="M4.77369 5.35109C4.77369 3.01708 6.66578 1.125 8.99978 1.125C11.3338 1.125 13.2259 3.01708 13.2259 5.35109C13.2259 6.81279 12.4838 8.10117 11.3558 8.86002C13.7302 9.74446 15.4722 11.9272 15.7196 14.5456C15.7297 14.652 15.7372 14.7591 15.7423 14.8667C15.7641 15.3322 15.4045 15.7272 14.939 15.7491C14.8377 15.7491 14.4366 15.7491 13.839 15.7491C10.9216 15.7493 3.32134 15.7498 3.0606 15.7491C2.59512 15.7273 2.23547 15.3322 2.25729 14.8667C2.26234 14.7591 2.26991 14.652 2.27996 14.5456C2.52735 11.9272 4.26935 9.74446 6.64376 8.86003C5.51578 8.10117 4.77369 6.81279 4.77369 5.35109Z" fill="#F0F6FC"/>
</svg>
