<svg width="18" height="18" viewBox="0 0 18 18" fill="none" xmlns="http://www.w3.org/2000/svg">
<path fill-rule="evenodd" clip-rule="evenodd" d="M8.71875 2.25C8.94252 2.25 9.15714 2.3389 9.31537 2.49713C9.4736 2.65536 9.5625 2.86998 9.5625 3.09375V7.875H14.3438C14.5675 7.875 14.7822 7.9639 14.9403 8.12213C15.0986 8.28036 15.1875 8.49498 15.1875 8.71875C15.1875 8.94252 15.0986 9.15714 14.9403 9.31537C14.7822 9.4736 14.5675 9.5625 14.3438 9.5625H9.5625V14.3438C9.5625 14.5675 9.4736 14.7822 9.31537 14.9403C9.15714 15.0986 8.94252 15.1875 8.71875 15.1875C8.49498 15.1875 8.28036 15.0986 8.12213 14.9403C7.9639 14.7822 7.875 14.5675 7.875 14.3438V9.5625H3.09375C2.86998 9.5625 2.65536 9.4736 2.49713 9.31537C2.3389 9.15714 2.25 8.94252 2.25 8.71875C2.25 8.49498 2.3389 8.28036 2.49713 8.12213C2.65536 7.9639 2.86998 7.875 3.09375 7.875H7.875V3.09375C7.875 2.86998 7.9639 2.65536 8.12213 2.49713C8.28036 2.3389 8.49498 2.25 8.71875 2.25Z" fill="#F0F6FC"/>
</svg>
