<svg width="239" height="239" viewBox="0 0 239 239" fill="none" xmlns="http://www.w3.org/2000/svg">
<g clip-path="url(#clip0_119_199)">
<path d="M119.5 239C185.498 239 239 185.498 239 119.5C239 53.502 185.498 0 119.5 0C53.502 0 0 53.502 0 119.5C0 185.498 53.502 239 119.5 239Z" fill="#F2F2F2"/>
<mask id="mask0_119_199" style="mask-type:luminance" maskUnits="userSpaceOnUse" x="0" y="0" width="239" height="239">
<path d="M119.5 239C185.498 239 239 185.498 239 119.5C239 53.502 185.498 0 119.5 0C53.502 0 0 53.502 0 119.5C0 185.498 53.502 239 119.5 239Z" fill="white"/>
</mask>
<g mask="url(#mask0_119_199)">
<path d="M139.571 103.346C138.387 106.062 138.193 109.955 138.538 114.233C138.915 118.897 139.941 124.125 141.138 129.012C142.336 133.902 143.708 138.466 144.78 141.807C145.316 143.477 145.777 144.842 146.105 145.79C146.214 146.106 146.308 146.375 146.385 146.594C145.987 146.59 145.431 146.584 144.741 146.575C143.245 146.556 141.117 146.524 138.587 146.471C133.528 146.365 126.867 146.18 120.456 145.857C114.039 145.533 107.894 145.074 103.857 144.426C102.849 144.264 101.981 144.091 101.277 143.908C100.564 143.723 100.051 143.535 99.7336 143.354C99.5587 143.253 99.4908 143.184 99.4651 143.15C99.476 143.133 99.4941 143.109 99.5256 143.077C99.6086 142.994 99.7508 142.887 99.9768 142.763C101.116 142.136 101.963 140.926 102.602 139.397C103.244 137.858 103.703 135.929 104.024 133.773C104.664 129.457 104.763 124.137 104.614 118.978C104.464 113.814 104.065 108.79 103.703 105.059C103.523 103.193 103.351 101.648 103.225 100.57C103.174 100.138 103.13 99.7802 103.096 99.507L139.571 103.346Z" fill="white" stroke="#262C36"/>
<path d="M123.019 65.2503C137.909 65.2503 149.98 77.3211 149.98 92.2113C149.98 107.101 137.909 119.172 123.019 119.172C108.129 119.172 96.0579 107.101 96.0579 92.2113C96.0579 77.3212 108.129 65.2504 123.019 65.2503Z" fill="white" stroke="#262C36"/>
<path d="M103.867 127.413C104.705 129.054 106.111 130.401 107.733 131.499C109.505 132.698 111.568 133.624 113.519 134.325C115.472 135.026 117.328 135.508 118.694 135.814C119.378 135.967 119.941 136.077 120.333 136.148C120.529 136.184 120.684 136.21 120.789 136.227C120.842 136.236 120.883 136.242 120.91 136.247C120.924 136.249 120.934 136.25 120.942 136.251C120.945 136.252 120.948 136.253 120.95 136.253H120.953L121.008 136.261L121.062 136.258C126.908 135.855 132.113 134.114 135.852 132.478C137.722 131.659 139.23 130.865 140.272 130.275C140.792 129.98 141.197 129.735 141.472 129.564C141.549 129.516 141.615 129.472 141.672 129.436L186.912 147.604L182.402 168.141L172.675 212.464L172.669 212.488L172.666 212.512L172.375 214.939V214.94L169.018 243.041L166.785 261.708L165.318 273.985C160.869 276.27 157.033 278.202 154.295 279.57C152.902 280.266 151.793 280.816 151.032 281.192C150.802 281.306 150.603 281.402 150.439 281.483C150.372 281.167 150.283 280.743 150.171 280.232C149.914 279.062 149.542 277.435 149.083 275.609L148.956 275.102L148.454 275.252C142.184 277.132 130.715 280.213 120.874 280.921C120.863 280.891 120.853 280.859 120.84 280.827C120.619 280.269 120.192 279.344 119.595 278.112C118.396 275.639 116.484 271.873 114.082 267.203C109.273 257.85 102.514 244.886 95.5597 231.337C88.6095 217.797 81.4797 203.702 75.9532 192.129C73.1898 186.343 70.83 181.191 69.0939 177.057C67.3496 172.904 66.2586 169.83 65.9991 168.171C64.2596 157.044 62.9531 147.64 62.6769 145.639L62.6759 145.637L62.672 145.616L103.867 127.413Z" fill="#262C36" stroke="black"/>
<path d="M146.311 66.2359L151.445 64.182C151.445 64.182 140.709 52.3623 125.773 53.3896L129.974 48.7646C129.974 48.7646 119.704 44.6534 110.368 55.4454C105.461 61.1183 99.7829 67.7868 96.2431 75.2984H90.7438L93.039 80.3518L85.0067 85.4052L93.2511 84.4973C92.7597 87.2645 92.6842 90.0896 93.027 92.8791C93.3805 95.6697 94.8044 98.2138 96.9982 99.9744C96.9982 99.9744 103.366 86.7921 103.366 84.7382V89.8771C103.366 89.8771 108.501 85.252 108.501 82.1686L111.302 85.7659L112.702 80.1132L129.973 85.7659L127.172 81.1409L137.908 82.6824L133.707 77.0297C133.707 77.0297 145.843 83.7105 146.31 89.3632C146.776 95.0159 150.329 100.373 150.329 100.373C150.329 100.373 159.848 73.9444 146.311 66.2359Z" fill="#090814"/>
<path d="M217.341 243.612C214.544 246.644 207.613 251.211 199.21 256.155C196.085 257.993 192.757 259.886 189.363 261.768C181.263 266.261 172.782 270.712 165.784 274.308C156.679 278.987 150.081 282.218 150.081 282.218C150.081 282.218 149.513 279.372 148.598 275.731C147.373 270.858 145.529 264.558 143.605 261.768C143.538 261.671 143.471 261.581 143.404 261.492C142.844 260.756 142.28 260.327 141.723 260.327L169.514 243.1L181.524 235.654L172.872 214.999L162.02 189.09L168.57 168.248L175.153 147.298H187.492C187.492 147.298 191.577 156.216 196.802 168.651C197.582 170.511 198.389 172.449 199.21 174.451C209.958 200.592 223.358 237.093 217.341 243.612Z" fill="#151B23"/>
<path d="M93.1689 261.522C92.1555 261.518 91.1436 261.6 90.1441 261.768C81.5588 263.243 79.0269 271.014 78.3061 276.22C78.0754 277.81 77.9879 279.417 78.0447 281.023L70.4602 275.189L67.6968 273.065C61.0458 270.746 55.1194 266.627 49.9809 261.768C45.5231 257.479 41.5244 252.737 38.0496 247.619C34.5885 242.574 31.503 237.282 28.8182 231.785C28.0691 230.251 27.6664 228.571 27.6386 226.864C27.6109 225.157 27.9588 223.465 28.6576 221.907L38.0496 200.976L51.7771 170.384C51.8767 169.656 51.9875 168.944 52.1095 168.248C54.8318 152.638 62.1251 145.707 62.1251 145.707H67.6968L71.4237 168.248L76.0543 196.252L72.8091 206.835L65.3105 231.277L72.4768 239.059L93.1689 261.522Z" fill="#151B23"/>
<path d="M194.633 178.781H132.477V177.5H104.293V178.781H41.881C40.7662 178.781 39.6971 179.224 38.9088 180.012C38.1204 180.8 37.6773 181.869 37.6769 182.984V268.096C37.6769 268.648 37.7856 269.195 37.9969 269.705C38.2082 270.215 38.5179 270.679 38.9084 271.069C39.2988 271.459 39.7623 271.769 40.2724 271.98C40.7825 272.192 41.3293 272.301 41.8814 272.301H194.633C195.186 272.301 195.732 272.192 196.242 271.98C196.753 271.769 197.216 271.459 197.606 271.069C197.997 270.679 198.307 270.215 198.518 269.705C198.729 269.195 198.838 268.648 198.838 268.096V182.984C198.838 182.432 198.729 181.885 198.518 181.375C198.307 180.865 197.997 180.401 197.606 180.011C197.216 179.621 196.753 179.311 196.242 179.1C195.732 178.888 195.186 178.779 194.633 178.779V178.781Z" fill="#090814"/>
<path d="M119.666 217.831C124.822 217.831 129.002 213.652 129.002 208.495C129.002 203.339 124.822 199.159 119.666 199.159C114.51 199.159 110.33 203.339 110.33 208.495C110.33 213.652 114.51 217.831 119.666 217.831Z" fill="#F2F2F2"/>
</g>
</g>
<defs>
<clipPath id="clip0_119_199">
<rect width="239" height="239" fill="white"/>
</clipPath>
</defs>
</svg>
