<svg width="18" height="18" viewBox="0 0 18 18" fill="none" xmlns="http://www.w3.org/2000/svg">
<path fill-rule="evenodd" clip-rule="evenodd" d="M2.25 2.8125C2.25 2.06658 2.54632 1.3512 3.07376 0.823762C3.60122 0.296316 4.31658 0 5.0625 0H14.9063C15.13 0 15.3447 0.0888948 15.5028 0.247129C15.6611 0.405362 15.75 0.619974 15.75 0.84375V14.9062C15.75 15.13 15.6611 15.3447 15.5028 15.5028C15.3447 15.6611 15.13 15.75 14.9063 15.75H12.0938C11.87 15.75 11.6553 15.6611 11.4972 15.5028C11.3389 15.3447 11.25 15.13 11.25 14.9062C11.25 14.6825 11.3389 14.4678 11.4972 14.3097C11.6553 14.1514 11.87 14.0625 12.0938 14.0625H14.0625V11.8125H5.0625C4.84097 11.8125 4.62438 11.878 4.43989 12.0006C4.25539 12.1232 4.11122 12.2976 4.02543 12.5019C3.93965 12.7061 3.91608 12.9311 3.95767 13.1488C3.99926 13.3664 4.10418 13.5668 4.25925 13.725C4.4159 13.885 4.50259 14.1005 4.50027 14.3244C4.49795 14.5483 4.40681 14.762 4.24688 14.9186C4.08696 15.0752 3.87135 15.162 3.6475 15.1596C3.42366 15.1573 3.2099 15.0662 3.05325 14.9062C2.53768 14.3808 2.2492 13.6737 2.25 12.9375V2.8125ZM14.0625 1.6875V10.125H5.0625C4.662 10.125 4.28175 10.2083 3.9375 10.359V2.8125C3.9375 2.51413 4.05603 2.22798 4.267 2.017C4.47799 1.80603 4.76413 1.6875 5.0625 1.6875H14.0625ZM5.625 13.7812V17.4375C5.625 17.4897 5.63955 17.5409 5.66701 17.5853C5.69447 17.6298 5.73376 17.6657 5.78048 17.6891C5.82719 17.7125 5.87949 17.7223 5.93151 17.7176C5.98353 17.7129 6.03322 17.6939 6.075 17.6625L7.70625 16.4396C7.75494 16.4031 7.81415 16.3834 7.875 16.3834C7.93585 16.3834 7.99507 16.4031 8.04375 16.4396L9.675 17.6625C9.71678 17.6939 9.76647 17.7129 9.81849 17.7176C9.87051 17.7223 9.92282 17.7125 9.96953 17.6891C10.0162 17.6657 10.0555 17.6298 10.083 17.5853C10.1105 17.5409 10.125 17.4897 10.125 17.4375V13.7812C10.125 13.7067 10.0954 13.6351 10.0426 13.5823C9.98988 13.5296 9.91835 13.5 9.84375 13.5H5.90625C5.83166 13.5 5.76013 13.5296 5.70737 13.5823C5.65463 13.6351 5.625 13.7067 5.625 13.7812Z" fill="#F0F6FC"/>
</svg>
