<svg width="18" height="18" viewBox="0 0 18 18" fill="none" xmlns="http://www.w3.org/2000/svg">
<path fill-rule="evenodd" clip-rule="evenodd" d="M2.25 3.09375C2.25 2.00644 3.13144 1.125 4.21875 1.125H7.03125C7.49724 1.125 7.875 1.50276 7.875 1.96875C7.875 2.43474 7.49724 2.8125 7.03125 2.8125H4.21875C4.06342 2.8125 3.9375 2.93842 3.9375 3.09375V14.9062C3.9375 15.0616 4.06342 15.1875 4.21875 15.1875H7.03125C7.49724 15.1875 7.875 15.5653 7.875 16.0312C7.875 16.4972 7.49724 16.875 7.03125 16.875H4.21875C3.13144 16.875 2.25 15.9936 2.25 14.9062V3.09375ZM13.9942 8.15625H7.59377C7.12779 8.15625 6.75002 8.53401 6.75002 9C6.75002 9.466 7.12779 9.84375 7.59377 9.84375H13.9942L11.7784 12.0597C11.4489 12.3892 11.4489 12.9233 11.7784 13.2528C12.1079 13.5824 12.6421 13.5824 12.9716 13.2528L16.6278 9.59662C16.9574 9.26712 16.9574 8.73288 16.6278 8.40338L12.9716 4.74713C12.6421 4.41763 12.1079 4.41763 11.7784 4.74713C11.4489 5.07663 11.4489 5.61087 11.7784 5.94037L13.9942 8.15625Z" fill="#F0F6FC"/>
</svg>
