<svg width="18" height="18" viewBox="0 0 18 18" fill="none" xmlns="http://www.w3.org/2000/svg">
<path fill-rule="evenodd" clip-rule="evenodd" d="M12 1.3125V2.25H15.9375C16.2482 2.25 16.5 2.50184 16.5 2.8125C16.5 3.12316 16.2482 3.375 15.9375 3.375H2.0625C1.75184 3.375 1.5 3.12316 1.5 2.8125C1.5 2.50184 1.75184 2.25 2.0625 2.25H6V1.3125C6 0.587626 6.58763 0 7.3125 0H10.6875C11.4124 0 12 0.587626 12 1.3125ZM7.125 1.3125C7.125 1.20895 7.20895 1.125 7.3125 1.125H10.6875C10.7911 1.125 10.875 1.20895 10.875 1.3125V2.25H7.125V1.3125Z" fill="#F0F6FC"/>
<path d="M3.74742 4.63331C3.7175 4.3241 3.44257 4.09769 3.13336 4.12761C2.82414 4.15753 2.59773 4.43246 2.62766 4.74168L3.68707 15.6889C3.75217 16.3617 4.31756 16.875 4.99346 16.875H13.0066C13.6825 16.875 14.2479 16.3617 14.313 15.6889L15.3724 4.74168C15.4023 4.43246 15.1759 4.15753 14.8667 4.12761C14.5575 4.09769 14.2826 4.3241 14.2527 4.63331L13.1932 15.5806C13.1839 15.6767 13.1032 15.75 13.0066 15.75H4.99346C4.89691 15.75 4.81614 15.6767 4.80683 15.5806L3.74742 4.63331Z" fill="#F0F6FC"/>
<path d="M6.90449 5.62596C7.21461 5.60772 7.4808 5.84434 7.49905 6.15446L7.87405 12.5295C7.89229 12.8396 7.65567 13.1058 7.34555 13.124C7.03542 13.1423 6.76923 12.9056 6.75099 12.5955L6.37599 6.22053C6.35775 5.9104 6.59436 5.64421 6.90449 5.62596Z" fill="#F0F6FC"/>
<path d="M11.624 6.22053C11.6423 5.9104 11.4057 5.64421 11.0955 5.62596C10.7854 5.60772 10.5192 5.84434 10.501 6.15446L10.126 12.5295C10.1077 12.8396 10.3444 13.1058 10.6545 13.124C10.9646 13.1423 11.2308 12.9056 11.249 12.5955L11.624 6.22053Z" fill="#F0F6FC"/>
</svg>
