<svg width="376" height="372" viewBox="0 0 376 372" fill="none" xmlns="http://www.w3.org/2000/svg">
<g clip-path="url(#clip0_6_1772)">
<path d="M307.936 371.539H46.088V103.444C46.088 46.4046 92.5909 0 149.751 0H204.273C261.433 0 307.936 46.4046 307.936 103.444V371.539Z" fill="#9198A1"/>
<path d="M253.415 371.539H46.088V103.444C46.0308 81.5877 52.9664 60.284 65.885 42.6344C66.3611 41.9867 66.8363 41.3475 67.326 40.7153C73.5746 32.5371 81.0107 25.3347 89.3889 19.3458C89.8622 19.002 90.3373 18.6643 90.8195 18.3267C97.8301 13.4855 105.414 9.52789 113.398 6.544C113.872 6.36484 114.354 6.18521 114.837 6.01262C122.058 3.44084 129.543 1.67906 137.154 0.759833C137.624 0.69558 138.111 0.645402 138.595 0.59475C146.012 -0.196622 153.492 -0.196622 160.91 0.59475C161.393 0.644933 161.877 0.695583 162.354 0.760305C169.964 1.67981 177.447 3.44159 184.665 6.01309C185.148 6.18521 185.631 6.36484 186.106 6.54494C193.992 9.49097 201.487 13.3894 208.424 18.1531C208.905 18.4814 209.387 18.821 209.863 19.1587C214.559 22.5038 218.97 26.2305 223.051 30.3007C226.323 33.5653 229.373 37.0453 232.179 40.7171C232.668 41.3475 233.142 41.9867 233.618 42.6335C246.537 60.2832 253.473 81.5873 253.416 103.444L253.415 371.539Z" fill="#CCCCCC"/>
<path d="M236.555 185.412C242.895 185.412 248.034 180.284 248.034 173.958C248.034 167.632 242.895 162.504 236.555 162.504C230.216 162.504 225.077 167.632 225.077 173.958C225.077 180.284 230.216 185.412 236.555 185.412Z" fill="#3D444D"/>
<path d="M375.396 372H0.604859C0.271164 372 0.000457764 371.618 0.000457764 371.148C0.000457764 370.677 0.271164 370.295 0.604859 370.295H375.396C375.729 370.295 376 370.677 376 371.148C376 371.619 375.73 372 375.396 372Z" fill="#E6E6E6"/>
<path d="M196.381 293.867H103.121C101.892 293.873 100.712 293.394 99.8375 292.533C98.9633 291.672 98.467 290.5 98.4574 289.274V81.549C98.467 80.3235 98.9632 79.1518 99.8373 78.2909C100.711 77.4299 101.892 76.9501 103.12 76.9566H196.381C197.61 76.9501 198.79 77.4299 199.664 78.2909C200.538 79.1518 201.035 80.3235 201.044 81.549V289.274C201.035 290.5 200.538 291.672 199.664 292.533C198.79 293.394 197.61 293.873 196.381 293.867Z" fill="white"/>
<path d="M201.045 144.17H98.4574V145.602H201.045V144.17Z" fill="#CCCCCC"/>
<path d="M201.403 225.859H98.816V227.291H201.403V225.859Z" fill="#CCCCCC"/>
<path d="M132.175 76.957H130.74V294.583H132.175V76.957Z" fill="#CCCCCC"/>
<path d="M168.045 76.957H166.61V294.583H168.045V76.957Z" fill="#CCCCCC"/>
<path d="M306.342 136.526C306.342 137.362 306.244 138.195 306.05 139.008L297.784 174.111C297.505 175.297 296.995 176.417 296.282 177.406C295.569 178.395 294.667 179.234 293.629 179.875C292.59 180.516 291.435 180.947 290.23 181.142C289.025 181.337 287.793 181.293 286.605 181.012L253.476 170.754L251.858 170.256C250.808 170.976 249.624 171.48 248.376 171.738C247.129 171.997 245.842 172.004 244.591 171.761C239.782 170.912 236.453 167.007 237.156 163.033C237.858 159.06 242.326 156.532 247.134 157.376C248.392 157.574 249.599 158.02 250.684 158.688C251.768 159.356 252.709 160.232 253.451 161.266L253.475 161.271L253.559 161.286L282.394 164.845L284.818 135.661C285.042 132.892 286.33 130.316 288.414 128.474C290.497 126.631 293.215 125.664 295.997 125.776C298.779 125.888 301.409 127.069 303.338 129.073C305.267 131.076 306.344 133.747 306.344 136.525L306.342 136.526Z" fill="#ED9DA0"/>
<path d="M306.343 136.526C306.342 137.362 306.244 138.195 306.051 139.008L299.268 175.59C298.99 176.777 298.479 177.896 297.766 178.885C297.053 179.874 296.151 180.713 295.113 181.354C294.074 181.995 292.919 182.426 291.714 182.621C290.509 182.816 289.277 182.772 288.089 182.491L254.96 173.299L256.444 158.984L281.673 162.439L284.819 135.659C285.042 132.89 286.331 130.314 288.415 128.472C290.498 126.629 293.216 125.662 295.998 125.774C298.78 125.886 301.41 127.067 303.339 129.071C305.268 131.074 306.345 133.745 306.345 136.523L306.343 136.526Z" fill="#3D444D"/>
<path d="M349.369 329.295L341.368 335.182L347.267 343.167L355.269 337.28L349.369 329.295Z" fill="#ED9DA0"/>
<path d="M359.268 345.549L342.258 358.062C340.794 359.136 339.108 359.87 337.323 360.21L333.076 361.013C332.609 361.101 332.125 361.045 331.69 360.852C331.255 360.659 330.889 360.338 330.642 359.932C330.394 359.526 330.277 359.054 330.306 358.58C330.334 358.105 330.507 357.651 330.801 357.277L335.95 350.732L342.729 336.785L342.768 336.821C343.748 337.715 345.236 339.059 345.348 339.125C347.441 339.587 349.049 339.327 350.126 338.353C352.006 336.653 351.627 333.319 351.622 333.287L351.619 333.262L351.641 333.249C351.854 333.105 352.097 333.013 352.351 332.978C352.605 332.943 352.864 332.967 353.107 333.048C354.086 333.405 354.596 334.686 354.669 334.883C355.624 335.016 358.109 337.858 358.309 338.089C359.738 338.347 360.722 338.883 361.233 339.68C361.461 340.077 361.601 340.518 361.645 340.974C361.69 341.429 361.637 341.889 361.491 342.323C361.14 343.62 360.356 344.758 359.268 345.549Z" fill="#F0F6FC"/>
<path d="M280.749 352.595H270.808V362.515H280.749V352.595Z" fill="#ED9DA0"/>
<path d="M279.052 371.54H257.92C256.103 371.537 254.31 371.129 252.671 370.346L248.775 368.477C248.346 368.272 247.99 367.94 247.755 367.527C247.52 367.114 247.416 366.639 247.459 366.166C247.501 365.692 247.687 365.243 247.992 364.878C248.297 364.513 248.706 364.25 249.165 364.123L257.202 361.904L270.951 354.692L270.962 354.744C271.219 356.044 271.617 358.007 271.667 358.126C273.077 359.738 274.525 360.481 275.972 360.334C278.495 360.079 280.173 357.171 280.19 357.142L280.202 357.119L280.228 357.122C280.484 357.133 280.735 357.202 280.96 357.324C281.185 357.447 281.379 357.62 281.527 357.829C282.103 358.695 281.752 360.029 281.694 360.23C282.383 360.903 282.693 364.662 282.717 364.967C283.714 366.021 284.187 367.035 284.127 367.98C284.073 368.434 283.924 368.872 283.69 369.265C283.455 369.658 283.139 369.997 282.764 370.26C281.71 371.097 280.401 371.549 279.054 371.541L279.052 371.54Z" fill="#F0F6FC"/>
<path d="M321.312 197.52H273.667L266.071 355.249H282.85L293.691 283.554L337.193 340.91L353.075 326.57L321.311 283.553L321.312 197.52Z" fill="#F0F6FC"/>
<path d="M310.36 99.9169C310.36 96.6782 309.459 93.5031 307.76 90.7441C306.06 87.9851 303.627 85.7502 300.731 84.2875C297.836 82.8248 294.591 82.1915 291.356 82.458C288.121 82.7245 285.024 83.8803 282.408 85.7972C279.792 87.714 277.76 90.3169 276.536 93.3167C275.313 96.3165 274.947 99.596 275.479 102.791C276.01 105.986 277.419 108.971 279.548 111.416C281.677 113.86 284.443 115.668 287.54 116.638L290.935 139.025L308.24 124.635C308.24 124.635 304.501 119.883 302.496 114.525C304.915 112.928 306.9 110.758 308.272 108.209C309.644 105.66 310.362 102.811 310.36 99.9169Z" fill="#ED9DA0"/>
<path d="M310.85 175.898L318.631 198.781L274.605 198.287L281.169 177.379L310.85 175.898Z" fill="#ED9DA0"/>
<path d="M306.874 117.82L287.35 124.593L268.892 219.68L306.874 224.308H325.439L311.255 129.75C310.62 125.518 309.129 121.459 306.873 117.82H306.874Z" fill="#3D444D"/>
<path d="M301.4 229.546L301.74 213.916L292.595 213.719L292.255 229.348C291.343 230.236 290.618 231.297 290.121 232.468C289.625 233.639 289.366 234.897 289.362 236.169C289.256 241.041 292.446 245.061 296.486 245.148C300.527 245.236 303.888 241.358 303.994 236.486C304.045 235.215 303.842 233.946 303.396 232.755C302.951 231.563 302.272 230.472 301.4 229.544V229.546Z" fill="#ED9DA0"/>
<path d="M306.513 110.674C307.427 110.83 308.498 108.622 309.521 106.471C311.665 101.968 313.028 99.1074 313.132 95.0609C313.22 91.6128 312.26 92.518 311.327 84.8522C311.019 82.3238 306.69 82.3285 305.809 81.1279C304.321 79.0999 306.604 78.2637 302.902 77.0476C295.966 74.7659 292.831 78.3106 288.426 78.6159C288.314 78.6234 286.131 80.7546 284.912 80.8648C282.775 81.058 279.695 80.7241 278.311 77.4777C277.019 74.4404 276.164 83.3158 277.318 84.4137C278.33 85.474 279.238 86.6269 280.033 87.8571C280.08 88.0498 277.998 81.7864 277.318 83.6408C276.83 84.9751 276.383 93.6042 277.626 93.8621C278.665 94.0779 287.305 97.389 296.883 90.8606C297.223 90.6289 296.902 90.9984 298.087 93.8621C299.581 97.4734 299.92 97.6709 299.892 98.6661C299.836 100.82 298.215 101.455 298.688 102.87C298.926 103.455 299.348 103.948 299.89 104.273C300.433 104.598 301.067 104.738 301.696 104.671C302.965 104.409 303.184 102.842 304.104 102.87C304.891 102.894 305.826 104.077 305.909 105.272C306.084 107.789 302.351 108.481 301.696 111.878C301.327 113.795 305.672 110.534 306.511 110.677L306.513 110.674Z" fill="#090814"/>
</g>
<defs>
<clipPath id="clip0_6_1772">
<rect width="376" height="372" fill="white"/>
</clipPath>
</defs>
</svg>
